<svg id="visual" viewBox="0 0 900 450" width="900" height="450" xmlns="http://www.w3.org/2000/svg" xmlns:xlink="http://www.w3.org/1999/xlink" version="1.1"><path d="M0 105L21.5 99.7C43 94.3 86 83.7 128.8 79.2C171.7 74.7 214.3 76.3 257.2 81.7C300 87 343 96 385.8 92.2C428.7 88.3 471.3 71.7 514.2 72.3C557 73 600 91 642.8 97C685.7 103 728.3 97 771.2 87.3C814 77.7 857 64.3 878.5 57.7L900 51L900 0L878.5 0C857 0 814 0 771.2 0C728.3 0 685.7 0 642.8 0C600 0 557 0 514.2 0C471.3 0 428.7 0 385.8 0C343 0 300 0 257.2 0C214.3 0 171.7 0 128.8 0C86 0 43 0 21.5 0L0 0Z" fill="#122541"></path><path d="M0 150L21.5 145.5C43 141 86 132 128.8 126.7C171.7 121.3 214.3 119.7 257.2 122.7C300 125.7 343 133.3 385.8 134.2C428.7 135 471.3 129 514.2 132.7C557 136.3 600 149.7 642.8 151.8C685.7 154 728.3 145 771.2 131.5C814 118 857 100 878.5 91L900 82L900 49L878.5 55.7C857 62.3 814 75.7 771.2 85.3C728.3 95 685.7 101 642.8 95C600 89 557 71 514.2 70.3C471.3 69.7 428.7 86.3 385.8 90.2C343 94 300 85 257.2 79.7C214.3 74.3 171.7 72.7 128.8 77.2C86 81.7 43 92.3 21.5 97.7L0 103Z" fill="#142b4d"></path><path d="M0 240L21.5 237.7C43 235.3 86 230.7 128.8 241.8C171.7 253 214.3 280 257.2 295C300 310 343 313 385.8 306.3C428.7 299.7 471.3 283.3 514.2 269.8C557 256.3 600 245.7 642.8 250.2C685.7 254.7 728.3 274.3 771.2 283.3C814 292.3 857 290.7 878.5 289.8L900 289L900 80L878.5 89C857 98 814 116 771.2 129.5C728.3 143 685.7 152 642.8 149.8C600 147.7 557 134.3 514.2 130.7C471.3 127 428.7 133 385.8 132.2C343 131.3 300 123.7 257.2 120.7C214.3 117.7 171.7 119.3 128.8 124.7C86 130 43 139 21.5 143.5L0 148Z" fill="#183059"></path><path d="M0 397L21.5 392.5C43 388 86 379 128.8 377.5C171.7 376 214.3 382 257.2 388C300 394 343 400 385.8 400C428.7 400 471.3 394 514.2 389.5C557 385 600 382 642.8 377.5C685.7 373 728.3 367 771.2 367.8C814 368.7 857 376.3 878.5 380.2L900 384L900 287L878.5 287.8C857 288.7 814 290.3 771.2 281.3C728.3 272.3 685.7 252.7 642.8 248.2C600 243.7 557 254.3 514.2 267.8C471.3 281.3 428.7 297.7 385.8 304.3C343 311 300 308 257.2 293C214.3 278 171.7 251 128.8 239.8C86 228.7 43 233.3 21.5 235.7L0 238Z" fill="#29416d"></path><path d="M0 451L21.5 451C43 451 86 451 128.8 451C171.7 451 214.3 451 257.2 451C300 451 343 451 385.8 451C428.7 451 471.3 451 514.2 451C557 451 600 451 642.8 451C685.7 451 728.3 451 771.2 451C814 451 857 451 878.5 451L900 451L900 382L878.5 378.2C857 374.3 814 366.7 771.2 365.8C728.3 365 685.7 371 642.8 375.5C600 380 557 383 514.2 387.5C471.3 392 428.7 398 385.8 398C343 398 300 392 257.2 386C214.3 380 171.7 374 128.8 375.5C86 377 43 386 21.5 390.5L0 395Z" fill="#395282"></path></svg>